<svg id="color" enable-background="new 0 0 24 24" height="512" viewBox="0 0 24 24" width="512" xmlns="http://www.w3.org/2000/svg"><path d="m18.25 24h-12.5c-1.517 0-2.75-1.233-2.75-2.75v-18.5c0-1.517 1.233-2.75 2.75-2.75h12.5c1.517 0 2.75 1.233 2.75 2.75v18.5c0 1.517-1.233 2.75-2.75 2.75z" fill="#eceff1"/><path d="m14 20h-7c-.553 0-1-.448-1-1s.447-1 1-1h7c.553 0 1 .448 1 1s-.447 1-1 1z" fill="#b0bec5"/><path d="m11 12h-4c-.553 0-1-.448-1-1s.447-1 1-1h4c.553 0 1 .448 1 1s-.447 1-1 1z" fill="#b0bec5"/><path d="m17 16h-10c-.553 0-1-.448-1-1s.447-1 1-1h10c.553 0 1 .448 1 1s-.447 1-1 1z" fill="#b0bec5"/><g fill="#4caf50"><path d="m12.25 8c-.414 0-.75-.336-.75-.75v-3.25c0-.276-.225-.5-.5-.5s-.5.224-.5.5v3.25c0 .414-.336.75-.75.75s-.75-.336-.75-.75v-3.25c0-1.103.897-2 2-2s2 .897 2 2v3.25c0 .414-.336.75-.75.75z"/><path d="m12.25 6.5h-2.5c-.414 0-.75-.336-.75-.75s.336-.75.75-.75h2.5c.414 0 .75.336.75.75s-.336.75-.75.75z"/><path d="m17.25 4.75h-2.5c-.414 0-.75-.336-.75-.75s.336-.75.75-.75h2.5c.414 0 .75.336.75.75s-.336.75-.75.75z"/><path d="m16 6c-.414 0-.75-.336-.75-.75v-2.5c0-.414.336-.75.75-.75s.75.336.75.75v2.5c0 .414-.336.75-.75.75z"/></g><path d="m7 12c-.553 0-1-.448-1-1s.447-1 1-1h4c.553 0 1 .448 1 1s-.447 1-1 1zm5-12h-6.25c-1.517 0-2.75 1.233-2.75 2.75v18.5c0 1.517 1.233 2.75 2.75 2.75h6.25v-4h-5c-.553 0-1-.448-1-1s.447-1 1-1h5v-2h-5c-.553 0-1-.448-1-1s.447-1 1-1h5v-6.043c-.291-.103-.5-.381-.5-.707v-.75h-1v.75c0 .414-.336.75-.75.75s-.75-.336-.75-.75v-3.25c0-1.103.897-2 2-2 .364 0 .706.098 1 .268z" fill="#d2d4d6"/><path d="m12 18h-5c-.553 0-1 .448-1 1s.447 1 1 1h5z" fill="#9ea9b0"/><path d="m11 10h-4c-.553 0-1 .448-1 1s.447 1 1 1h4c.553 0 1-.448 1-1s-.447-1-1-1z" fill="#9ea9b0"/><path d="m12 14h-5c-.553 0-1 .448-1 1s.447 1 1 1h5z" fill="#9ea9b0"/><path d="m11 3.5c-.275 0-.5.224-.5.5v1h1v-1c0-.276-.225-.5-.5-.5z" fill="#d2d4d6"/><path d="m12 6.5h-.5v.75c0 .326.209.604.5.707zm-1-4.5c-1.103 0-2 .897-2 2v3.25c0 .414.336.75.75.75s.75-.336.75-.75v-.75h-.75c-.414 0-.75-.336-.75-.75s.336-.75.75-.75h.75v-1c0-.276.225-.5.5-.5s.5.224.5.5v1h.5v-2.732c-.294-.17-.636-.268-1-.268z" fill="#479c4a"/><path d="m12 5h-.5-1-.75c-.414 0-.75.336-.75.75s.336.75.75.75h.75 1 .5z" fill="#479c4a"/></svg>